<svg width="13" height="14" viewBox="0 0 13 14" fill="none" xmlns="http://www.w3.org/2000/svg">
<path d="M0.292893 11.5962C-0.0976311 11.9868 -0.0976311 12.6199 0.292893 13.0105C0.683418 13.401 1.31658 13.401 1.70711 13.0105L0.292893 11.5962ZM12.6066 1.69674C12.6066 1.14446 12.1589 0.696743 11.6066 0.696743L2.6066 0.696743C2.05432 0.696742 1.6066 1.14446 1.6066 1.69674C1.6066 2.24903 2.05432 2.69674 2.6066 2.69674L10.6066 2.69674L10.6066 10.6967C10.6066 11.249 11.0543 11.6967 11.6066 11.6967C12.1589 11.6967 12.6066 11.249 12.6066 10.6967L12.6066 1.69674ZM1.70711 13.0105L12.3137 2.40385L10.8995 0.989636L0.292893 11.5962L1.70711 13.0105Z" fill="white"/>
</svg>
