<svg width="20" height="20" viewBox="0 0 20 20" fill="none" xmlns="http://www.w3.org/2000/svg">
<path d="M0.292893 18.1318C-0.0976311 18.5223 -0.0976311 19.1554 0.292893 19.546C0.683418 19.9365 1.31658 19.9365 1.70711 19.546L0.292893 18.1318ZM19.6777 1.1612C19.6777 0.608913 19.23 0.161198 18.6777 0.161197L9.67767 0.161198C9.12538 0.161198 8.67767 0.608913 8.67767 1.1612C8.67767 1.71348 9.12538 2.1612 9.67767 2.1612L17.6777 2.1612L17.6777 10.1612C17.6777 10.7135 18.1254 11.1612 18.6777 11.1612C19.23 11.1612 19.6777 10.7135 19.6777 10.1612L19.6777 1.1612ZM1.70711 19.546L19.3848 1.8683L17.9706 0.454091L0.292893 18.1318L1.70711 19.546Z" fill="white"/>
</svg>
