<svg width="30" height="30" viewBox="0 0 30 30" fill="none" xmlns="http://www.w3.org/2000/svg">
<path d="M21.7821 14.2153L24.2941 11.7033L18.2941 5.70327L15.7821 8.21527L9.15813 1.60726C7.91013 0.359265 5.87813 0.359265 4.63014 1.60726L1.59014 4.64727C0.342145 5.89527 0.342145 7.92727 1.59014 9.17527L8.19813 15.7833L0.598145 23.3993V29.3993H6.59813L14.2141 21.7833L20.8221 28.3913C22.3421 29.9113 24.3901 29.3513 25.3501 28.3913L28.3901 25.3513C29.6381 24.1033 29.6381 22.0713 28.3901 20.8233L21.7821 14.2153ZM10.4861 13.5113L3.86214 6.90327L6.88613 3.86327L8.91813 5.89527L7.03013 7.79927L9.28613 10.0553L11.1901 8.15127L13.5101 10.4713L10.4861 13.5113ZM23.0941 26.1353L16.4861 19.5273L19.5261 16.4873L21.8461 18.8073L19.9421 20.7113L22.1981 22.9673L24.1021 21.0633L26.1341 23.0953L23.0941 26.1353Z" fill="white"/>
<path d="M28.9341 7.06315C29.5581 6.43915 29.5581 5.43115 28.9341 4.80715L25.1901 1.06315C24.4381 0.311147 23.3981 0.599147 22.9341 1.06315L20.0061 3.99115L26.0061 9.99115L28.9341 7.06315Z" fill="white"/>
</svg>
