<svg width="40" height="40" viewBox="0 0 40 40" fill="none" xmlns="http://www.w3.org/2000/svg">
<rect width="40" height="40" rx="19" fill="#151515"/>
<g clip-path="url(#clip0_243_130)">
<path fill-rule="evenodd" clip-rule="evenodd" d="M20 8C26.6276 8 32 13.5079 32 20.3035C32 25.7383 28.5656 30.3487 23.8004 31.9771C23.192 32.0983 22.976 31.7141 22.976 31.3865C22.976 30.9809 22.9904 29.6562 22.9904 28.0098C22.9904 26.8626 22.6064 26.1138 22.1756 25.7322C24.848 25.4274 27.656 24.3869 27.656 19.6613C27.656 18.3173 27.1904 17.2206 26.42 16.359C26.5448 16.0482 26.9564 14.7967 26.3024 13.1023C26.3024 13.1023 25.2968 12.7727 23.006 14.3639C22.0472 14.0915 21.02 13.9544 20 13.9496C18.98 13.9544 17.954 14.0915 16.9964 14.3639C14.7032 12.7727 13.6952 13.1023 13.6952 13.1023C13.0436 14.7967 13.4552 16.0482 13.5788 16.359C12.812 17.2206 12.3428 18.3173 12.3428 19.6613C12.3428 24.3749 15.1448 25.4314 17.81 25.7422C17.4668 26.0494 17.156 26.5913 17.048 27.3869C16.364 27.7013 14.6264 28.2454 13.556 26.365C13.556 26.365 12.9212 25.1829 11.7164 25.0965C11.7164 25.0965 10.5464 25.0809 11.6348 25.8441C11.6348 25.8441 12.4208 26.2221 12.9668 27.6441C12.9668 27.6441 13.6712 29.8401 17.0096 29.0961C17.0156 30.1245 17.0264 31.0937 17.0264 31.3865C17.0264 31.7117 16.8056 32.0923 16.2068 31.9783C11.438 30.3523 8 25.7395 8 20.3035C8 13.5079 13.3736 8 20 8Z" fill="#E8E6E3"/>
</g>
<defs>
<clipPath id="clip0_243_130">
<rect width="24" height="24" fill="white" transform="translate(8 8)"/>
</clipPath>
</defs>
</svg>
