<svg width="280" height="155" viewBox="0 0 280 155" fill="none" xmlns="http://www.w3.org/2000/svg">
<rect width="77" height="130" transform="translate(0 14)" fill="black"/>
<g filter="url(#filter0_d_140_323)">
<path d="M95.6513 31.3309L85.6289 58.6837L81.2859 60.8135L74.646 41.1445L68.4238 58.6837L64.0807 60.8135L53.3484 31.2474L49.3812 28.8671L50.2164 27.1967H61.6587V28.4912L58.6102 30.788L67.2963 55.2594L73.5185 37.8872L71.2635 31.2056L67.4215 28.8671L68.2567 27.1967H80.5342V28.4912L76.8175 31.3727L84.5849 55.1759L93.1875 31.3727L85.7542 28.8671L86.5894 27.1967H99.2844V28.4912L95.6513 31.3309ZM126.609 60.02H118.674V45.9469C118.674 44.4157 118.437 43.3439 117.964 42.7314C117.491 42.1189 116.642 41.8127 115.417 41.8127C114.498 41.8127 113.579 41.9797 112.661 42.3138C111.77 42.6479 110.712 43.2882 109.487 44.2347V56.888L113.245 58.3496L112.41 60.02H100.759V58.7255L104.476 55.8023V30.1199L100.759 27.5307V26.2362L107.9 23.5635H109.487V42.272L115.208 37.7619C115.793 37.5392 116.558 37.4279 117.505 37.4279C119.398 37.4279 120.901 38.0125 122.015 39.1818C123.129 40.3232 123.685 41.8823 123.685 43.8589V56.888L127.444 58.3496L126.609 60.02ZM142.445 60.02H130.794V58.7255L134.51 55.8023V43.6083L130.794 41.0192V39.7247L137.935 37.052H139.521V56.888L143.28 58.3496L142.445 60.02ZM136.849 24.524C137.684 24.524 138.366 24.8303 138.895 25.4427C139.452 26.0552 139.73 26.8208 139.73 27.7395C139.73 28.3799 139.535 28.9923 139.146 29.577C138.756 30.1338 138.269 30.5792 137.684 30.9133C137.099 31.2474 136.529 31.4144 135.972 31.4144C135.137 31.4144 134.441 31.1082 133.884 30.4957C133.355 29.8832 133.09 29.1176 133.09 28.1989C133.09 27.5586 133.285 26.96 133.675 26.4032C134.065 25.8186 134.552 25.3592 135.137 25.0251C135.721 24.6911 136.292 24.524 136.849 24.524ZM160.471 55.5099C160.471 54.7304 160.04 54.0205 159.177 53.3802C158.314 52.712 156.991 51.9186 155.21 50.9999C153.762 50.2482 152.593 49.5939 151.702 49.0371C150.811 48.4803 150.045 47.84 149.405 47.1162C148.792 46.3645 148.486 45.5571 148.486 44.6941C148.486 43.6919 148.904 42.62 149.739 41.4786C150.574 40.3371 151.604 39.3767 152.829 38.5971C154.054 37.8176 155.196 37.4279 156.254 37.4279C157.534 37.4279 159.01 37.5949 160.68 37.929C162.378 38.2352 163.603 38.5832 164.355 38.973V45.404H162.768C161.877 43.6779 160.847 42.3416 159.678 41.3951C158.509 40.4207 157.311 39.9335 156.087 39.9335C155.223 39.9335 154.527 40.1701 153.999 40.6434C153.47 41.0888 153.205 41.6595 153.205 42.3555C153.205 43.2186 153.651 43.9981 154.541 44.6941C155.46 45.3623 156.838 46.1557 158.676 47.0744C160.095 47.7983 161.237 48.4247 162.1 48.9536C162.963 49.4826 163.687 50.109 164.271 50.8328C164.884 51.5288 165.19 52.3083 165.19 53.1714C165.19 54.2015 164.745 55.2872 163.854 56.4287C162.991 57.5423 161.919 58.4888 160.638 59.2683C159.386 60.0479 158.23 60.4376 157.172 60.4376C155.808 60.4376 154.179 60.2845 152.286 59.9783C150.421 59.6442 149.085 59.2823 148.277 58.8925V52.4615H149.864C150.839 54.1875 151.994 55.5378 153.33 56.5122C154.667 57.4587 156.017 57.932 157.381 57.932C158.3 57.932 159.038 57.6954 159.594 57.2221C160.179 56.7488 160.471 56.1781 160.471 55.5099ZM183.255 60.4794C181.752 60.4794 180.36 60.02 179.079 59.1013V67.2027L184.926 68.9984L184.091 70.6688H170.351V69.3743L174.068 66.4511V44.0259L170.351 41.8544V40.5599L177.492 37.052L178.871 42.4808L184.842 37.7619C185.733 37.5392 186.749 37.4279 187.891 37.4279C189.394 37.4279 190.744 37.9151 191.941 38.8895C193.166 39.836 194.113 41.1306 194.781 42.7731C195.477 44.4157 195.825 46.2253 195.825 48.2019C195.825 50.3456 195.171 52.364 193.862 54.2571C192.554 56.1224 190.911 57.6258 188.935 58.7672C186.986 59.8808 185.093 60.4376 183.255 60.4376V60.4794ZM185.761 41.4368C184.703 41.4368 183.673 41.6456 182.671 42.0632C181.668 42.4808 180.471 43.3021 179.079 44.5271V51.5845C179.079 53.1157 179.65 54.3963 180.791 55.4264C181.933 56.4565 183.562 56.9715 185.677 56.9715C188.823 56.9715 190.396 54.7304 190.396 50.2482C190.396 47.7704 189.993 45.6824 189.185 43.9842C188.378 42.2859 187.236 41.4368 185.761 41.4368ZM215.3 60.1035C214.186 60.3263 212.85 60.4376 211.291 60.4376C209.454 60.4376 207.797 59.9643 206.322 59.0178C204.874 58.0434 203.732 56.7349 202.897 55.0923C202.09 53.4498 201.686 51.6402 201.686 49.6635C201.686 47.5199 202.34 45.5154 203.649 43.6501C204.957 41.757 206.586 40.2536 208.535 39.14C210.511 37.9986 212.418 37.4279 214.256 37.4279C216.901 37.4279 218.947 38.4719 220.395 40.5599C221.87 42.6479 222.608 45.404 222.608 48.8283H207.157C207.324 51.1947 207.964 53.1296 209.078 54.633C210.219 56.1363 211.764 56.888 213.713 56.888C215.523 56.888 218.098 55.4821 221.439 52.6703L222.691 54.2571L215.3 60.1035ZM211.834 40.9357C208.827 40.9357 207.254 42.9959 207.115 47.1162H216.887C216.636 45.6128 216.372 44.4714 216.093 43.6919C215.843 42.8845 215.383 42.2303 214.715 41.7291C214.075 41.2002 213.114 40.9357 211.834 40.9357ZM242.969 37.4696C243.888 37.4696 244.695 37.7202 245.391 38.2213C246.087 38.7224 246.63 39.4184 247.02 40.3093L244.264 43.7754H242.677C242.565 43.0794 242.357 42.5922 242.05 42.3138C241.772 42.0075 241.382 41.8544 240.881 41.8544C240.269 41.8544 239.614 42.0215 238.918 42.3555C238.25 42.6618 237.485 43.2603 236.622 44.1512V56.5957L242.468 58.3914L241.633 60.0618H227.894V58.7672L231.61 55.844V44.0259L227.894 41.8544V40.5599L235.035 37.052L236.329 42.1885L240.672 37.7619C241.257 37.5392 242.023 37.4279 242.969 37.4279V37.4696ZM262.995 55.5099C262.995 54.7304 262.564 54.0205 261.701 53.3802C260.838 52.712 259.515 51.9186 257.734 50.9999C256.286 50.2482 255.117 49.5939 254.226 49.0371C253.335 48.4803 252.569 47.84 251.929 47.1162C251.317 46.3645 251.01 45.5571 251.01 44.6941C251.01 43.6919 251.428 42.62 252.263 41.4786C253.098 40.3371 254.128 39.3767 255.353 38.5971C256.578 37.8176 257.72 37.4279 258.778 37.4279C260.058 37.4279 261.534 37.5949 263.204 37.929C264.902 38.2352 266.127 38.5832 266.879 38.973V45.404H265.292C264.401 43.6779 263.371 42.3416 262.202 41.3951C261.033 40.4207 259.836 39.9335 258.611 39.9335C257.748 39.9335 257.052 40.1701 256.523 40.6434C255.994 41.0888 255.729 41.6595 255.729 42.3555C255.729 43.2186 256.175 43.9981 257.065 44.6941C257.984 45.3623 259.362 46.1557 261.2 47.0744C262.62 47.7983 263.761 48.4247 264.624 48.9536C265.487 49.4826 266.211 50.109 266.796 50.8328C267.408 51.5288 267.714 52.3083 267.714 53.1714C267.714 54.2015 267.269 55.2872 266.378 56.4287C265.515 57.5423 264.443 58.4888 263.162 59.2683C261.91 60.0479 260.754 60.4376 259.696 60.4376C258.332 60.4376 256.704 60.2845 254.81 59.9783C252.945 59.6442 251.609 59.2823 250.801 58.8925V52.4615H252.388C253.363 54.1875 254.518 55.5378 255.854 56.5122C257.191 57.4587 258.541 57.932 259.905 57.932C260.824 57.932 261.562 57.6954 262.118 57.2221C262.703 56.7488 262.995 56.1781 262.995 55.5099Z" fill="white"/>
<path d="M110.073 131.083H91.03V129.141L96.9182 124.505V89.8655L80.1933 131.083H76.7481L60.1485 89.4271V125.257L66.7257 128.577L65.4729 131.083H50.8151V129.141L56.7033 124.505V87.7984L50.1887 84.2906L51.4415 81.785H65.0344L80.6944 121.123L96.2918 81.785H110.699V83.7268L104.748 88.3622V126.259L111.325 128.577L110.073 131.083ZM150.549 131.02H138.647V125.57L131.569 131.145C130.734 131.479 129.69 131.646 128.437 131.646C124.845 131.646 122.235 130.749 120.607 128.953C119.02 127.157 118.227 125.007 118.227 122.501C118.227 120.998 118.769 119.515 119.855 118.054C120.941 116.592 122.486 115.214 124.491 113.919H138.647V109.91C138.647 107.196 137.916 105.275 136.455 104.147C135.035 103.02 133.072 102.456 130.567 102.456C127.977 102.456 124.804 104.022 121.045 107.154L119.166 104.774L128.186 97.6329C129.857 97.2988 131.861 97.1318 134.2 97.1318C138 97.1318 140.944 98.0714 143.032 99.9506C145.12 101.788 146.164 104.482 146.164 108.031V126.322L151.802 128.514L150.549 131.02ZM130.441 126.322C132.989 126.322 135.724 125.153 138.647 122.814V116.488H127.56C127.017 117.156 126.62 117.824 126.37 118.492C126.161 119.16 126.057 119.891 126.057 120.684C126.057 122.23 126.453 123.566 127.247 124.693C128.04 125.779 129.105 126.322 130.441 126.322ZM195.593 131.083H183.691V109.973C183.691 107.676 183.336 106.068 182.626 105.15C181.916 104.231 180.643 103.772 178.805 103.772C177.427 103.772 176.049 104.022 174.671 104.523C173.335 105.024 171.748 105.985 169.91 107.405V126.385L175.548 128.577L174.295 131.083H156.819V129.141L162.394 124.756V107.029L156.819 103.772V101.83L167.53 96.568L169.597 104.711L178.492 97.6329C179.369 97.2988 180.517 97.1318 181.937 97.1318C184.777 97.1318 187.032 98.0087 188.702 99.7627C190.373 101.475 191.208 103.813 191.208 106.778V126.322L196.846 128.577L195.593 131.083ZM221.635 97.1318C224.391 97.1318 226.855 97.8626 229.027 99.3242C231.24 100.744 232.952 102.686 234.163 105.15C235.416 107.614 236.043 110.328 236.043 113.293C236.043 116.508 235.061 119.536 233.098 122.376C231.136 125.174 228.672 127.429 225.707 129.141C222.784 130.811 219.944 131.646 217.188 131.646C214.432 131.646 211.947 130.936 209.734 129.517C207.562 128.055 205.85 126.092 204.597 123.629C203.386 121.165 202.781 118.45 202.781 115.485C202.781 112.27 203.762 109.263 205.725 106.465C207.688 103.625 210.13 101.37 213.054 99.7C216.019 97.9879 218.879 97.1318 221.635 97.1318ZM218.002 102.394C213.283 102.394 210.924 105.755 210.924 112.479C210.924 116.446 211.78 119.766 213.492 122.438C215.204 125.069 217.647 126.385 220.821 126.385C225.54 126.385 227.899 123.002 227.899 116.237C227.899 112.312 227.043 109.033 225.331 106.403C223.619 103.73 221.176 102.394 218.002 102.394ZM266.479 97.1944C267.857 97.1944 269.068 97.5703 270.112 98.3219C271.156 99.0736 271.971 100.118 272.555 101.454L268.421 106.653H266.041C265.874 105.609 265.561 104.878 265.101 104.461C264.684 104.001 264.099 103.772 263.347 103.772C262.429 103.772 261.447 104.022 260.403 104.523C259.401 104.983 258.253 105.881 256.958 107.217V125.884L265.728 128.577L264.475 131.083H243.866V129.141L249.441 124.756V107.029L243.866 103.772V101.83L254.578 96.568L256.519 104.273L263.034 97.6329C263.911 97.2988 265.059 97.1318 266.479 97.1318V97.1944Z" fill="white"/>
<path d="M181.648 77.496C182.704 77.496 183.648 77.776 184.48 78.336C185.328 78.88 185.984 79.624 186.448 80.568C186.928 81.512 187.168 82.552 187.168 83.688C187.168 84.92 186.792 86.08 186.04 87.168C185.288 88.24 184.344 89.104 183.208 89.76C182.088 90.4 181 90.72 179.944 90.72C178.888 90.72 177.936 90.448 177.088 89.904C176.256 89.344 175.6 88.592 175.12 87.648C174.656 86.704 174.424 85.664 174.424 84.528C174.424 83.296 174.8 82.144 175.552 81.072C176.304 79.984 177.24 79.12 178.36 78.48C179.496 77.824 180.592 77.496 181.648 77.496ZM180.256 79.512C178.448 79.512 177.544 80.8 177.544 83.376C177.544 84.896 177.872 86.168 178.528 87.192C179.184 88.2 180.12 88.704 181.336 88.704C183.144 88.704 184.048 87.408 184.048 84.816C184.048 83.312 183.72 82.056 183.064 81.048C182.408 80.024 181.472 79.512 180.256 79.512ZM198.337 69.288C198.785 69.288 199.289 69.336 199.849 69.432C200.425 69.512 200.833 69.6 201.073 69.696V73.392H200.161C199.761 72.752 199.273 72.248 198.697 71.88C198.121 71.496 197.537 71.304 196.945 71.304C196.209 71.304 195.649 71.632 195.265 72.288C194.897 72.944 194.713 73.904 194.713 75.168V78.456H199.033V79.44H194.713V88.488L198.073 89.52L197.593 90.48H189.697V89.736L191.833 88.056V79.44H188.977V78.456H191.833V76.32C191.833 75.088 192.169 73.928 192.841 72.84C193.513 71.752 194.353 70.888 195.361 70.248C196.385 69.608 197.377 69.288 198.337 69.288ZM213.787 90.528C213.419 90.656 212.971 90.72 212.443 90.72C211.115 90.72 210.139 90.376 209.515 89.688C208.907 88.984 208.603 87.904 208.603 86.448V79.44H206.011V78.456L210.571 73.152H211.483V78.456H215.803V79.44H211.483V86.736C211.483 88.032 212.107 88.68 213.355 88.68C213.691 88.68 214.011 88.608 214.315 88.464C214.635 88.32 215.027 88.064 215.491 87.696L216.211 88.608L213.787 90.528ZM232.268 90.48H227.708V82.392C227.708 81.512 227.572 80.896 227.3 80.544C227.028 80.192 226.54 80.016 225.836 80.016C225.308 80.016 224.78 80.112 224.252 80.304C223.74 80.496 223.132 80.864 222.428 81.408V88.68L224.588 89.52L224.108 90.48H217.412V89.736L219.548 88.056V73.296L217.412 71.808V71.064L221.516 69.528H222.428V80.28L225.716 77.688C226.052 77.56 226.492 77.496 227.036 77.496C228.124 77.496 228.988 77.832 229.628 78.504C230.268 79.16 230.588 80.056 230.588 81.192V88.68L232.748 89.52L232.268 90.48ZM242.858 90.528C242.218 90.656 241.45 90.72 240.554 90.72C239.498 90.72 238.546 90.448 237.698 89.904C236.866 89.344 236.21 88.592 235.73 87.648C235.266 86.704 235.034 85.664 235.034 84.528C235.034 83.296 235.41 82.144 236.162 81.072C236.914 79.984 237.85 79.12 238.97 78.48C240.106 77.824 241.202 77.496 242.258 77.496C243.778 77.496 244.954 78.096 245.786 79.296C246.634 80.496 247.058 82.08 247.058 84.048H238.178C238.274 85.408 238.642 86.52 239.282 87.384C239.938 88.248 240.826 88.68 241.946 88.68C242.986 88.68 244.466 87.872 246.386 86.256L247.106 87.168L242.858 90.528ZM240.866 79.512C239.138 79.512 238.234 80.696 238.154 83.064H243.77C243.626 82.2 243.474 81.544 243.314 81.096C243.17 80.632 242.906 80.256 242.522 79.968C242.154 79.664 241.602 79.512 240.866 79.512Z" fill="white"/>
</g>
<path d="M2.61 142.439V15.7043L65.25 3.18334V151.83L2.61 142.439Z" fill="url(#paint0_linear_140_323)" stroke="#222222" stroke-width="5.22"/>
<ellipse cx="53.0697" cy="77.43" rx="4.35" ry="4.35" fill="#222222"/>
<defs>
<filter id="filter0_d_140_323" x="40.02" y="9.06002" width="239.92" height="142.92" filterUnits="userSpaceOnUse" color-interpolation-filters="sRGB">
<feFlood flood-opacity="0" result="BackgroundImageFix"/>
<feColorMatrix in="SourceAlpha" type="matrix" values="0 0 0 0 0 0 0 0 0 0 0 0 0 0 0 0 0 0 127 0" result="hardAlpha"/>
<feOffset/>
<feGaussianBlur stdDeviation="3.48"/>
<feComposite in2="hardAlpha" operator="out"/>
<feColorMatrix type="matrix" values="0 0 0 0 1 0 0 0 0 1 0 0 0 0 1 0 0 0 0.6 0"/>
<feBlend mode="normal" in2="BackgroundImageFix" result="effect1_dropShadow_140_323"/>
<feBlend mode="normal" in="SourceGraphic" in2="effect1_dropShadow_140_323" result="shape"/>
</filter>
<linearGradient id="paint0_linear_140_323" x1="33.93" y1="0" x2="33.93" y2="154.86" gradientUnits="userSpaceOnUse">
<stop stop-color="#957A45"/>
<stop offset="1" stop-color="#D09522"/>
</linearGradient>
</defs>
</svg>
