<svg width="169" height="94" viewBox="0 0 169 94" fill="none" xmlns="http://www.w3.org/2000/svg">
<rect width="46.2" height="78" transform="translate(0.63623 9.37201)" fill="black"/>
<g filter="url(#filter0_d_140_476)">
<path d="M58.227 18.9705L52.2136 35.3822L49.6077 36.66L45.6238 24.8586L41.8905 35.3822L39.2847 36.66L32.8453 18.9204L30.465 17.4922L30.9661 16.4899H37.8314V17.2667L36.0023 18.6448L41.214 33.3276L44.9473 22.9043L43.5943 18.8953L41.2891 17.4922L41.7903 16.4899H49.1567V17.2667L46.9267 18.9955L51.5872 33.2775L56.7487 18.9955L52.2887 17.4922L52.7899 16.4899H60.4069V17.2667L58.227 18.9705ZM76.8013 36.184H72.0407V27.7401C72.0407 26.8214 71.8987 26.1783 71.6147 25.8108C71.3308 25.4433 70.8213 25.2595 70.0863 25.2595C69.5351 25.2595 68.9839 25.3598 68.4326 25.5602C67.8981 25.7607 67.2634 26.1449 66.5284 26.7128V34.3048L68.7834 35.1817L68.2823 36.184H61.2917V35.4072L63.5217 33.6533V18.2439L61.2917 16.6904V15.9136L65.5762 14.3101H66.5284V25.5352L69.961 22.8291C70.3118 22.6955 70.7712 22.6287 71.3391 22.6287C72.475 22.6287 73.377 22.9794 74.0452 23.681C74.7133 24.3659 75.0474 25.3013 75.0474 26.4873V34.3048L77.3025 35.1817L76.8013 36.184ZM86.303 36.184H79.3124V35.4072L81.5424 33.6533V26.3369L79.3124 24.7835V24.0067L83.597 22.4032H84.5491V34.3048L86.8042 35.1817L86.303 36.184ZM82.9455 14.8864C83.4467 14.8864 83.8559 15.0701 84.1733 15.4376C84.5074 15.8051 84.6744 16.2644 84.6744 16.8157C84.6744 17.1999 84.5575 17.5673 84.3236 17.9181C84.0898 18.2522 83.7974 18.5195 83.4467 18.7199C83.0959 18.9204 82.7534 19.0206 82.4194 19.0206C81.9182 19.0206 81.5006 18.8368 81.1666 18.4694C80.8492 18.1019 80.6905 17.6425 80.6905 17.0913C80.6905 16.7071 80.8074 16.348 81.0413 16.0139C81.2751 15.6631 81.5675 15.3875 81.9182 15.187C82.269 14.9866 82.6115 14.8864 82.9455 14.8864ZM97.119 33.4779C97.119 33.0102 96.8601 32.5842 96.3423 32.2001C95.8245 31.7992 95.031 31.3231 93.962 30.7719C93.0934 30.3209 92.3918 29.9283 91.8573 29.5942C91.3227 29.2601 90.8634 28.876 90.4792 28.4417C90.1117 27.9906 89.9279 27.5062 89.9279 26.9884C89.9279 26.3871 90.1785 25.744 90.6796 25.0591C91.1807 24.3742 91.7988 23.7979 92.5338 23.3302C93.2687 22.8625 93.9536 22.6287 94.5884 22.6287C95.3567 22.6287 96.2421 22.7289 97.2443 22.9293C98.2632 23.1131 98.9982 23.3219 99.4492 23.5557V27.4144H98.4971C97.9626 26.3787 97.3445 25.5769 96.643 25.009C95.9414 24.4243 95.2231 24.132 94.4881 24.132C93.9703 24.132 93.5527 24.274 93.2353 24.558C92.918 24.8252 92.7593 25.1677 92.7593 25.5853C92.7593 26.1031 93.0265 26.5708 93.5611 26.9884C94.1123 27.3893 94.9391 27.8654 96.0416 28.4166C96.8935 28.8509 97.5784 29.2267 98.0962 29.5441C98.614 29.8615 99.0483 30.2373 99.3991 30.6716C99.7666 31.0892 99.9503 31.557 99.9503 32.0748C99.9503 32.6928 99.6831 33.3443 99.1486 34.0291C98.6307 34.6973 97.9876 35.2652 97.2192 35.733C96.4676 36.2007 95.7743 36.4345 95.1396 36.4345C94.3211 36.4345 93.3439 36.3426 92.208 36.1589C91.0889 35.9585 90.2871 35.7413 89.8027 35.5074V31.6488H90.7548C91.3394 32.6845 92.0327 33.4946 92.8344 34.0793C93.6362 34.6472 94.4464 34.9312 95.2649 34.9312C95.8161 34.9312 96.2588 34.7892 96.5928 34.5052C96.9436 34.2212 97.119 33.8788 97.119 33.4779ZM110.789 36.4596C109.887 36.4596 109.052 36.184 108.284 35.6327V40.4936L111.792 41.571L111.291 42.5732H103.047V41.7965L105.277 40.0426V26.5875L103.047 25.2846V24.5079L107.332 22.4032L108.159 25.6604L111.742 22.8291C112.276 22.6955 112.886 22.6287 113.571 22.6287C114.473 22.6287 115.283 22.921 116.001 23.5056C116.736 24.0736 117.304 24.8503 117.705 25.8358C118.122 26.8214 118.331 27.9071 118.331 29.0931C118.331 30.3793 117.939 31.5904 117.154 32.7262C116.369 33.8454 115.383 34.7474 114.197 35.4323C113.028 36.1004 111.892 36.4345 110.789 36.4345V36.4596ZM112.293 25.034C111.658 25.034 111.04 25.1593 110.439 25.4099C109.837 25.6604 109.119 26.1532 108.284 26.8882V31.1226C108.284 32.0414 108.626 32.8098 109.311 33.4278C109.996 34.0458 110.973 34.3549 112.243 34.3549C114.13 34.3549 115.074 33.0102 115.074 30.3209C115.074 28.8342 114.832 27.5814 114.347 26.5625C113.863 25.5435 113.178 25.034 112.293 25.034ZM130.016 36.2341C129.348 36.3677 128.546 36.4345 127.611 36.4345C126.508 36.4345 125.514 36.1506 124.629 35.5826C123.761 34.998 123.076 34.2129 122.575 33.2274C122.09 32.2418 121.848 31.1561 121.848 29.9701C121.848 28.6839 122.24 27.4812 123.026 26.362C123.811 25.2261 124.788 24.3241 125.957 23.656C127.143 22.9711 128.287 22.6287 129.39 22.6287C130.977 22.6287 132.204 23.2551 133.073 24.5079C133.958 25.7607 134.401 27.4144 134.401 29.4689H125.13C125.23 30.8888 125.615 32.0497 126.283 32.9517C126.968 33.8538 127.895 34.3048 129.064 34.3048C130.15 34.3048 131.695 33.4612 133.699 31.7741L134.451 32.7262L130.016 36.2341ZM127.937 24.7334C126.133 24.7334 125.189 25.9695 125.105 28.4417H130.968C130.818 27.5396 130.659 26.8548 130.492 26.3871C130.342 25.9026 130.066 25.5101 129.665 25.2094C129.281 24.8921 128.705 24.7334 127.937 24.7334ZM146.618 22.6537C147.169 22.6537 147.653 22.8041 148.071 23.1047C148.489 23.4054 148.814 23.823 149.048 24.3575L147.394 26.4372H146.442C146.376 26.0196 146.25 25.7273 146.067 25.5602C145.899 25.3765 145.666 25.2846 145.365 25.2846C144.997 25.2846 144.605 25.3848 144.187 25.5853C143.786 25.769 143.327 26.1281 142.809 26.6627V34.1294L146.317 35.2068L145.816 36.209H137.573V35.4323L139.803 33.6784V26.5875L137.573 25.2846V24.5079L141.857 22.4032L142.634 25.485L145.24 22.8291C145.59 22.6955 146.05 22.6287 146.618 22.6287V22.6537ZM158.633 33.4779C158.633 33.0102 158.375 32.5842 157.857 32.2001C157.339 31.7992 156.545 31.3231 155.476 30.7719C154.608 30.3209 153.906 29.9283 153.372 29.5942C152.837 29.2601 152.378 28.876 151.994 28.4417C151.626 27.9906 151.442 27.5062 151.442 26.9884C151.442 26.3871 151.693 25.744 152.194 25.0591C152.695 24.3742 153.313 23.7979 154.048 23.3302C154.783 22.8625 155.468 22.6287 156.103 22.6287C156.871 22.6287 157.757 22.7289 158.759 22.9293C159.778 23.1131 160.513 23.3219 160.964 23.5557V27.4144H160.012C159.477 26.3787 158.859 25.5769 158.157 25.009C157.456 24.4243 156.738 24.132 156.003 24.132C155.485 24.132 155.067 24.274 154.75 24.558C154.432 24.8252 154.274 25.1677 154.274 25.5853C154.274 26.1031 154.541 26.5708 155.076 26.9884C155.627 27.3893 156.454 27.8654 157.556 28.4166C158.408 28.8509 159.093 29.2267 159.611 29.5441C160.128 29.8615 160.563 30.2373 160.914 30.6716C161.281 31.0892 161.465 31.557 161.465 32.0748C161.465 32.6928 161.198 33.3443 160.663 34.0291C160.145 34.6973 159.502 35.2652 158.734 35.733C157.982 36.2007 157.289 36.4345 156.654 36.4345C155.836 36.4345 154.858 36.3426 153.723 36.1589C152.603 35.9585 151.802 35.7413 151.317 35.5074V31.6488H152.269C152.854 32.6845 153.547 33.4946 154.349 34.0793C155.151 34.6472 155.961 34.9312 156.779 34.9312C157.331 34.9312 157.773 34.7892 158.107 34.5052C158.458 34.2212 158.633 33.8788 158.633 33.4779Z" fill="white"/>
<path d="M66.8798 80.4216H55.4542V79.2565L58.9871 76.4752V55.6913L48.9522 80.4216H46.8851L36.9253 55.4282V76.9262L40.8716 78.9182L40.1199 80.4216H31.3253V79.2565L34.8582 76.4752V54.451L30.9495 52.3463L31.7011 50.8429H39.8569L49.2529 74.4457L58.6113 50.8429H67.2556V52.0081L63.6851 54.7893V77.5276L67.6314 78.9182L66.8798 80.4216ZM91.1655 80.384H84.0245V77.1142L79.7775 80.4591C79.2764 80.6596 78.65 80.7598 77.8983 80.7598C75.7435 80.7598 74.1775 80.2211 73.2003 79.1437C72.2482 78.0663 71.7721 76.7759 71.7721 75.2725C71.7721 74.3705 72.0979 73.481 72.7493 72.6041C73.4008 71.7271 74.3278 70.9003 75.5305 70.1235H84.0245V67.7182C84.0245 66.0895 83.586 64.9369 82.7091 64.2604C81.8572 63.5839 80.6795 63.2457 79.1762 63.2457C77.6227 63.2457 75.7185 64.1853 73.4634 66.0645L72.3359 64.6363L77.748 60.3517C78.7502 60.1513 79.9529 60.051 81.3561 60.051C83.6362 60.051 85.4026 60.6148 86.6554 61.7423C87.9082 62.8448 88.5346 64.4609 88.5346 66.5906V77.5652L91.9172 78.8806L91.1655 80.384ZM79.101 77.5652C80.6294 77.5652 82.2706 76.8636 84.0245 75.4605V71.6645H77.3721C77.0464 72.0654 76.8084 72.4663 76.6581 72.8672C76.5328 73.2681 76.4701 73.7065 76.4701 74.1826C76.4701 75.1097 76.7082 75.9115 77.1842 76.588C77.6603 77.2394 78.2992 77.5652 79.101 77.5652ZM118.192 80.4216H111.051V67.7557C111.051 66.3777 110.838 65.413 110.412 64.8618C109.986 64.3105 109.222 64.0349 108.119 64.0349C107.293 64.0349 106.466 64.1853 105.639 64.4859C104.837 64.7866 103.885 65.3629 102.782 66.2148V77.6028L106.165 78.9182L105.413 80.4216H94.9274V79.2565L98.2724 76.6256V65.9893L94.9274 64.0349V62.8698L101.354 59.7128L102.595 64.5987L107.931 60.3517C108.458 60.1513 109.147 60.051 109.999 60.051C111.702 60.051 113.055 60.5772 114.058 61.6296C115.06 62.6569 115.561 64.06 115.561 65.839V77.5652L118.944 78.9182L118.192 80.4216ZM133.817 60.051C135.471 60.051 136.949 60.4895 138.252 61.3665C139.58 62.2184 140.608 63.3835 141.334 64.8618C142.086 66.3401 142.462 67.9687 142.462 69.7477C142.462 71.677 141.873 73.4936 140.695 75.1974C139.518 76.8761 138.039 78.2292 136.26 79.2565C134.506 80.2587 132.803 80.7598 131.149 80.7598C129.495 80.7598 128.004 80.3339 126.676 79.482C125.374 78.605 124.346 77.4274 123.595 75.9491C122.868 74.4708 122.505 72.8421 122.505 71.0631C122.505 69.1338 123.093 67.3298 124.271 65.651C125.449 63.9472 126.915 62.5942 128.668 61.592C130.447 60.5647 132.164 60.051 133.817 60.051ZM131.638 63.2081C128.806 63.2081 127.391 65.2251 127.391 69.2591C127.391 71.6394 127.904 73.6314 128.932 75.235C129.959 76.8135 131.425 77.6028 133.329 77.6028C136.16 77.6028 137.576 75.5732 137.576 71.5141C137.576 69.1589 137.062 67.192 136.035 65.6135C135.008 64.0099 133.542 63.2081 131.638 63.2081ZM160.724 60.0886C161.551 60.0886 162.277 60.3141 162.904 60.7651C163.53 61.2161 164.019 61.8425 164.369 62.6443L161.889 65.7638H160.461C160.36 65.1374 160.173 64.6989 159.897 64.4484C159.646 64.1727 159.296 64.0349 158.845 64.0349C158.293 64.0349 157.705 64.1853 157.078 64.4859C156.477 64.7616 155.788 65.3003 155.011 66.1021V77.3021L160.273 78.9182L159.521 80.4216H147.156V79.2565L150.501 76.6256V65.9893L147.156 64.0349V62.8698L153.583 59.7128L154.748 64.3356L158.657 60.3517C159.183 60.1513 159.872 60.051 160.724 60.051V60.0886Z" fill="white"/>
<path d="M109.525 47.0695C110.159 47.0695 110.725 47.2375 111.224 47.5735C111.733 47.8999 112.127 48.3463 112.405 48.9127C112.693 49.4791 112.837 50.1031 112.837 50.7847C112.837 51.5239 112.612 52.2199 112.16 52.8727C111.709 53.5159 111.143 54.0343 110.461 54.4279C109.789 54.8119 109.136 55.0039 108.503 55.0039C107.869 55.0039 107.298 54.8407 106.789 54.5143C106.29 54.1783 105.896 53.7271 105.608 53.1607C105.33 52.5943 105.191 51.9703 105.191 51.2887C105.191 50.5495 105.416 49.8583 105.868 49.2151C106.319 48.5623 106.88 48.0439 107.552 47.6599C108.234 47.2663 108.892 47.0695 109.525 47.0695ZM108.69 48.2791C107.605 48.2791 107.063 49.0519 107.063 50.5975C107.063 51.5095 107.26 52.2727 107.653 52.8871C108.047 53.4919 108.608 53.7943 109.338 53.7943C110.423 53.7943 110.965 53.0167 110.965 51.4615C110.965 50.5591 110.768 49.8055 110.375 49.2007C109.981 48.5863 109.42 48.2791 108.69 48.2791ZM119.538 42.1447C119.807 42.1447 120.11 42.1735 120.446 42.2311C120.791 42.2791 121.036 42.3319 121.18 42.3895V44.6071H120.633C120.393 44.2231 120.1 43.9207 119.754 43.6999C119.409 43.4695 119.058 43.3543 118.703 43.3543C118.262 43.3543 117.926 43.5511 117.695 43.9447C117.474 44.3383 117.364 44.9143 117.364 45.6727V47.6455H119.956V48.2359H117.364V53.6647L119.38 54.2839L119.092 54.8599H114.354V54.4135L115.636 53.4055V48.2359H113.922V47.6455H115.636V46.3639C115.636 45.6247 115.838 44.9287 116.241 44.2759C116.644 43.6231 117.148 43.1047 117.753 42.7207C118.367 42.3367 118.962 42.1447 119.538 42.1447ZM128.809 54.8887C128.588 54.9655 128.319 55.0039 128.002 55.0039C127.205 55.0039 126.62 54.7975 126.245 54.3847C125.881 53.9623 125.698 53.3143 125.698 52.4407V48.2359H124.143V47.6455L126.879 44.4631H127.426V47.6455H130.018V48.2359H127.426V52.6135C127.426 53.3911 127.801 53.7799 128.549 53.7799C128.751 53.7799 128.943 53.7367 129.125 53.6503C129.317 53.5639 129.553 53.4103 129.831 53.1895L130.263 53.7367L128.809 54.8887ZM139.897 54.8599H137.161V50.0071C137.161 49.4791 137.08 49.1095 136.916 48.8983C136.753 48.6871 136.46 48.5815 136.038 48.5815C135.721 48.5815 135.404 48.6391 135.088 48.7543C134.78 48.8695 134.416 49.0903 133.993 49.4167V53.7799L135.289 54.2839L135.001 54.8599H130.984V54.4135L132.265 53.4055V44.5495L130.984 43.6567V43.2103L133.446 42.2887H133.993V48.7399L135.966 47.1847C136.168 47.1079 136.432 47.0695 136.758 47.0695C137.411 47.0695 137.929 47.2711 138.313 47.6743C138.697 48.0679 138.889 48.6055 138.889 49.2871V53.7799L140.185 54.2839L139.897 54.8599ZM146.251 54.8887C145.867 54.9655 145.406 55.0039 144.868 55.0039C144.235 55.0039 143.664 54.8407 143.155 54.5143C142.656 54.1783 142.262 53.7271 141.974 53.1607C141.696 52.5943 141.556 51.9703 141.556 51.2887C141.556 50.5495 141.782 49.8583 142.233 49.2151C142.684 48.5623 143.246 48.0439 143.918 47.6599C144.6 47.2663 145.257 47.0695 145.891 47.0695C146.803 47.0695 147.508 47.4295 148.008 48.1495C148.516 48.8695 148.771 49.8199 148.771 51.0007H143.443C143.5 51.8167 143.721 52.4839 144.105 53.0023C144.499 53.5207 145.032 53.7799 145.704 53.7799C146.328 53.7799 147.216 53.2951 148.368 52.3255L148.8 52.8727L146.251 54.8887ZM145.056 48.2791C144.019 48.2791 143.476 48.9895 143.428 50.4103H146.798C146.712 49.8919 146.62 49.4983 146.524 49.2295C146.438 48.9511 146.28 48.7255 146.049 48.5527C145.828 48.3703 145.497 48.2791 145.056 48.2791Z" fill="white"/>
</g>
<path d="M2.20223 86.4353V10.3946L39.7863 2.88199V92.0697L2.20223 86.4353Z" fill="url(#paint0_linear_140_476)" stroke="#222222" stroke-width="3.132"/>
<ellipse cx="32.4782" cy="47.4299" rx="2.61" ry="2.61" fill="#222222"/>
<defs>
<filter id="filter0_d_140_476" x="24.6482" y="6.00796" width="144.352" height="86.552" filterUnits="userSpaceOnUse" color-interpolation-filters="sRGB">
<feFlood flood-opacity="0" result="BackgroundImageFix"/>
<feColorMatrix in="SourceAlpha" type="matrix" values="0 0 0 0 0 0 0 0 0 0 0 0 0 0 0 0 0 0 127 0" result="hardAlpha"/>
<feOffset/>
<feGaussianBlur stdDeviation="2.088"/>
<feComposite in2="hardAlpha" operator="out"/>
<feColorMatrix type="matrix" values="0 0 0 0 1 0 0 0 0 1 0 0 0 0 1 0 0 0 0.6 0"/>
<feBlend mode="normal" in2="BackgroundImageFix" result="effect1_dropShadow_140_476"/>
<feBlend mode="normal" in="SourceGraphic" in2="effect1_dropShadow_140_476" result="shape"/>
</filter>
<linearGradient id="paint0_linear_140_476" x1="20.9942" y1="0.971985" x2="20.9942" y2="93.888" gradientUnits="userSpaceOnUse">
<stop stop-color="#957A45"/>
<stop offset="1" stop-color="#D09522"/>
</linearGradient>
</defs>
</svg>
