<svg width="114" height="63" viewBox="0 0 114 63" fill="none" xmlns="http://www.w3.org/2000/svg">
<rect width="30.8" height="52" transform="translate(0.954102 6.05798)" fill="black"/>
<g filter="url(#filter0_d_140_371)">
<path d="M39.5146 14.0823L35.5057 25.0235L33.7684 25.8754L31.1125 18.0078L28.6236 25.0235L26.8864 25.8754L22.5935 14.0489L21.0066 13.0968L21.3407 12.4286H25.9176V12.9465L24.6982 13.8652L28.1726 23.6537L30.6615 16.7049L29.7595 14.0322L28.2227 13.0968L28.5568 12.4286H33.4678V12.9465L31.9811 14.099L35.0881 23.6203L38.5291 14.099L35.5558 13.0968L35.8899 12.4286H40.9679V12.9465L39.5146 14.0823ZM51.8975 25.558H48.7237V19.9287C48.7237 19.3163 48.6291 18.8875 48.4398 18.6425C48.2505 18.3975 47.9108 18.275 47.4208 18.275C47.0533 18.275 46.6859 18.3419 46.3184 18.4755C45.962 18.6091 45.5389 18.8652 45.0489 19.2439V24.3052L46.5522 24.8898L46.2181 25.558H41.5577V25.0402L43.0444 23.8709V13.5979L41.5577 12.5623V12.0444L44.4141 10.9754H45.0489V18.4588L47.3373 16.6547C47.5712 16.5657 47.8774 16.5211 48.256 16.5211C49.0133 16.5211 49.6146 16.755 50.0601 17.2227C50.5055 17.6793 50.7282 18.3029 50.7282 19.0935V24.3052L52.2316 24.8898L51.8975 25.558ZM58.232 25.558H53.5716V25.0402L55.0582 23.8709V18.9933L53.5716 17.9577V17.4398L56.4279 16.3708H57.0627V24.3052L58.5661 24.8898L58.232 25.558ZM55.9936 11.3596C56.3277 11.3596 56.6006 11.4821 56.8121 11.7271C57.0349 11.9721 57.1462 12.2783 57.1462 12.6458C57.1462 12.9019 57.0683 13.1469 56.9124 13.3808C56.7565 13.6035 56.5616 13.7817 56.3277 13.9153C56.0939 14.0489 55.8656 14.1157 55.6429 14.1157C55.3088 14.1157 55.0304 13.9932 54.8077 13.7483C54.5961 13.5033 54.4903 13.197 54.4903 12.8295C54.4903 12.5734 54.5682 12.334 54.7241 12.1113C54.88 11.8774 55.0749 11.6937 55.3088 11.56C55.5426 11.4264 55.7709 11.3596 55.9936 11.3596ZM65.4426 23.754C65.4426 23.4421 65.27 23.1582 64.9248 22.902C64.5796 22.6348 64.0506 22.3174 63.3379 21.9499C62.7589 21.6492 62.2911 21.3876 61.9348 21.1648C61.5784 20.9421 61.2722 20.686 61.0161 20.3964C60.7711 20.0958 60.6486 19.7728 60.6486 19.4276C60.6486 19.0267 60.8156 18.598 61.1497 18.1414C61.4838 17.6848 61.8958 17.3006 62.3858 16.9888C62.8758 16.677 63.3324 16.5211 63.7555 16.5211C64.2678 16.5211 64.858 16.5879 65.5261 16.7216C66.2054 16.8441 66.6954 16.9833 66.9961 17.1392V19.7116H66.3613C66.005 19.0211 65.593 18.4866 65.1253 18.108C64.6575 17.7182 64.1787 17.5234 63.6887 17.5234C63.3435 17.5234 63.0651 17.618 62.8535 17.8073C62.6419 17.9855 62.5361 18.2138 62.5361 18.4922C62.5361 18.8374 62.7143 19.1492 63.0707 19.4276C63.4381 19.6949 63.9894 20.0123 64.7244 20.3797C65.2923 20.6693 65.7489 20.9198 66.0941 21.1314C66.4393 21.343 66.7288 21.5936 66.9627 21.8831C67.2077 22.1615 67.3302 22.4733 67.3302 22.8185C67.3302 23.2306 67.152 23.6649 66.7957 24.1214C66.4504 24.5669 66.0217 24.9455 65.5094 25.2573C65.0083 25.5691 64.5462 25.725 64.123 25.725C63.5773 25.725 62.9259 25.6638 62.1686 25.5413C61.4225 25.4076 60.888 25.2629 60.5651 25.107V22.5346H61.1998C61.5896 23.225 62.0517 23.7651 62.5862 24.1548C63.1208 24.5335 63.6609 24.7228 64.2065 24.7228C64.574 24.7228 64.8691 24.6281 65.0918 24.4388C65.3257 24.2495 65.4426 24.0212 65.4426 23.754ZM74.5562 25.7417C73.9549 25.7417 73.3981 25.558 72.8858 25.1905V28.4311L75.2244 29.1493L74.8903 29.8175H69.3947V29.2997L70.8813 28.1304V19.1603L69.3947 18.2917V17.7739L72.2511 16.3708L72.8023 18.5423L75.191 16.6547C75.5473 16.5657 75.9538 16.5211 76.4104 16.5211C77.0117 16.5211 77.5518 16.716 78.0307 17.1058C78.5206 17.4844 78.8993 18.0022 79.1665 18.6592C79.4449 19.3163 79.5841 20.0401 79.5841 20.8307C79.5841 21.6882 79.3224 22.4956 78.799 23.2528C78.2757 23.9989 77.6186 24.6003 76.828 25.0569C76.0485 25.5023 75.2912 25.725 74.5562 25.725V25.7417ZM75.5585 18.1247C75.1353 18.1247 74.7233 18.2082 74.3224 18.3753C73.9215 18.5423 73.4426 18.8708 72.8858 19.3608V22.1838C72.8858 22.7963 73.1141 23.3085 73.5707 23.7205C74.0273 24.1326 74.6787 24.3386 75.5251 24.3386C76.7834 24.3386 77.4126 23.4421 77.4126 21.6492C77.4126 20.6581 77.2511 19.8229 76.9282 19.1436C76.6053 18.4643 76.1487 18.1247 75.5585 18.1247ZM87.3741 25.5914C86.9286 25.6805 86.3941 25.725 85.7705 25.725C85.0355 25.725 84.3729 25.5357 83.7827 25.1571C83.2036 24.7673 82.7471 24.2439 82.413 23.5869C82.09 22.9299 81.9286 22.206 81.9286 21.4154C81.9286 20.5579 82.1903 19.7561 82.7137 19.01C83.237 18.2528 83.8885 17.6514 84.668 17.206C85.4587 16.7494 86.2215 16.5211 86.9565 16.5211C88.0144 16.5211 88.8329 16.9387 89.412 17.7739C90.0022 18.6091 90.2973 19.7116 90.2973 21.0813H84.1168C84.1836 22.0279 84.4397 22.8018 84.8852 23.4032C85.3418 24.0045 85.9598 24.3052 86.7393 24.3052C87.4632 24.3052 88.4932 23.7428 89.8296 22.6181L90.3307 23.2528L87.3741 25.5914ZM85.9876 17.9243C84.785 17.9243 84.1558 18.7483 84.1001 20.3964H88.0088C87.9086 19.7951 87.8028 19.3385 87.6915 19.0267C87.5912 18.7038 87.4075 18.4421 87.1402 18.2416C86.8841 18.03 86.4999 17.9243 85.9876 17.9243ZM98.4418 16.5378C98.8093 16.5378 99.1322 16.638 99.4106 16.8385C99.689 17.0389 99.9062 17.3173 100.062 17.6737L98.9596 19.0601H98.3249C98.2803 18.7817 98.1968 18.5868 98.0743 18.4755C97.9629 18.353 97.807 18.2917 97.6066 18.2917C97.3616 18.2917 97.0999 18.3586 96.8215 18.4922C96.5542 18.6147 96.248 18.8541 95.9028 19.2105V24.1883L98.2413 24.9065L97.9072 25.5747H92.4116V25.0569L93.8983 23.8876V19.1603L92.4116 18.2917V17.7739L95.268 16.3708L95.7858 18.4254L97.5231 16.6547C97.7569 16.5657 98.0632 16.5211 98.4418 16.5211V16.5378ZM106.452 23.754C106.452 23.4421 106.28 23.1582 105.934 22.902C105.589 22.6348 105.06 22.3174 104.348 21.9499C103.768 21.6492 103.301 21.3876 102.944 21.1648C102.588 20.9421 102.282 20.686 102.026 20.3964C101.781 20.0958 101.658 19.7728 101.658 19.4276C101.658 19.0267 101.825 18.598 102.159 18.1414C102.493 17.6848 102.905 17.3006 103.395 16.9888C103.885 16.677 104.342 16.5211 104.765 16.5211C105.277 16.5211 105.868 16.5879 106.536 16.7216C107.215 16.8441 107.705 16.9833 108.006 17.1392V19.7116H107.371C107.015 19.0211 106.603 18.4866 106.135 18.108C105.667 17.7182 105.188 17.5234 104.698 17.5234C104.353 17.5234 104.075 17.618 103.863 17.8073C103.652 17.9855 103.546 18.2138 103.546 18.4922C103.546 18.8374 103.724 19.1492 104.08 19.4276C104.448 19.6949 104.999 20.0123 105.734 20.3797C106.302 20.6693 106.759 20.9198 107.104 21.1314C107.449 21.343 107.738 21.5936 107.972 21.8831C108.217 22.1615 108.34 22.4733 108.34 22.8185C108.34 23.2306 108.162 23.6649 107.805 24.1214C107.46 24.5669 107.031 24.9455 106.519 25.2573C106.018 25.5691 105.556 25.725 105.133 25.725C104.587 25.725 103.936 25.6638 103.178 25.5413C102.432 25.4076 101.898 25.2629 101.575 25.107V22.5346H102.209C102.599 23.225 103.061 23.7651 103.596 24.1548C104.13 24.5335 104.671 24.7228 105.216 24.7228C105.584 24.7228 105.879 24.6281 106.101 24.4388C106.335 24.2495 106.452 24.0212 106.452 23.754Z" fill="white"/>
<path d="M45.2831 52.799H37.6661V52.0223L40.0214 50.1682V36.3122L33.3314 52.799H31.9533L25.3135 36.1368V50.4688L27.9444 51.7968L27.4432 52.799H21.5801V52.0223L23.9354 50.1682V35.4853L21.3296 34.0822L21.8307 33.08H27.2679L33.5319 48.8151L39.7708 33.08H45.5337V33.8567L43.1534 35.7108V50.8697L45.7842 51.7968L45.2831 52.799ZM61.4736 52.774H56.713V50.5941L53.8816 52.8241C53.5476 52.9577 53.13 53.0245 52.6288 53.0245C51.1923 53.0245 50.1483 52.6654 49.4968 51.9471C48.8621 51.2289 48.5447 50.3686 48.5447 49.3664C48.5447 48.765 48.7619 48.172 49.1962 47.5874C49.6305 47.0028 50.2485 46.4515 51.0503 45.9337H56.713V44.3301C56.713 43.2444 56.4206 42.476 55.836 42.025C55.2681 41.574 54.483 41.3485 53.4807 41.3485C52.4451 41.3485 51.1756 41.9749 49.6722 43.2277L48.9205 42.2755L52.5286 39.4191C53.1968 39.2855 53.9986 39.2187 54.934 39.2187C56.454 39.2187 57.6317 39.5945 58.4669 40.3462C59.3021 41.0812 59.7197 42.1586 59.7197 43.5784V50.8948L61.9747 51.7717L61.4736 52.774ZM53.4306 50.8948C54.4496 50.8948 55.5437 50.4271 56.713 49.4917V46.961H52.278C52.0609 47.2283 51.9022 47.4955 51.802 47.7628C51.7185 48.0301 51.6767 48.3224 51.6767 48.6397C51.6767 49.2578 51.8354 49.7923 52.1528 50.2433C52.4701 50.6776 52.8961 50.8948 53.4306 50.8948ZM79.4912 52.799H74.7306V44.3552C74.7306 43.4365 74.5886 42.7933 74.3046 42.4259C74.0207 42.0584 73.5112 41.8746 72.7762 41.8746C72.225 41.8746 71.6737 41.9749 71.1225 42.1753C70.588 42.3757 69.9532 42.7599 69.2183 43.3279V50.9198L71.4733 51.7968L70.9722 52.799H63.9815V52.0223L66.2115 50.2684V43.1775L63.9815 41.8746V41.0979L68.2661 38.9932L69.093 42.2505L72.6509 39.4191C73.0017 39.2855 73.4611 39.2187 74.029 39.2187C75.1649 39.2187 76.0669 39.5695 76.7351 40.271C77.4032 40.9559 77.7373 41.8913 77.7373 43.0773V50.8948L79.9923 51.7968L79.4912 52.799ZM89.9082 39.2187C91.0107 39.2187 91.9962 39.511 92.8649 40.0956C93.7502 40.6636 94.435 41.4403 94.9194 42.4259C95.4206 43.4114 95.6711 44.4972 95.6711 45.6831C95.6711 46.9693 95.2786 48.1804 94.4935 49.3163C93.7084 50.4354 92.7229 51.3374 91.5369 52.0223C90.3676 52.6905 89.2317 53.0245 88.1293 53.0245C87.0268 53.0245 86.0329 52.7406 85.1476 52.1726C84.279 51.588 83.5941 50.8029 83.093 49.8174C82.6086 48.8318 82.3664 47.7461 82.3664 46.5601C82.3664 45.2739 82.7589 44.0712 83.544 42.952C84.3291 41.8162 85.3063 40.9141 86.4756 40.246C87.6616 39.5611 88.8058 39.2187 89.9082 39.2187ZM88.455 41.3234C86.5674 41.3234 85.6237 42.6681 85.6237 45.3574C85.6237 46.9443 85.9661 48.2723 86.651 49.3413C87.3358 50.3937 88.313 50.9198 89.5825 50.9198C91.4701 50.9198 92.4138 49.5668 92.4138 46.8608C92.4138 45.2906 92.0714 43.9793 91.3865 42.927C90.7017 41.8579 89.7245 41.3234 88.455 41.3234ZM107.846 39.2437C108.397 39.2437 108.881 39.3941 109.299 39.6948C109.717 39.9954 110.042 40.413 110.276 40.9476L108.623 43.0272H107.67C107.604 42.6096 107.478 42.3173 107.295 42.1502C107.128 41.9665 106.894 41.8746 106.593 41.8746C106.226 41.8746 105.833 41.9749 105.415 42.1753C105.014 42.359 104.555 42.7182 104.037 43.2527V50.7194L107.545 51.7968L107.044 52.799H98.8006V52.0223L101.031 50.2684V43.1775L98.8006 41.8746V41.0979L103.085 38.9932L103.862 42.0751L106.468 39.4191C106.819 39.2855 107.278 39.2187 107.846 39.2187V39.2437Z" fill="white"/>
<path d="M73.4411 31.8729C73.8371 31.8729 74.1911 31.9779 74.5031 32.1879C74.8211 32.3919 75.0671 32.6709 75.2411 33.0249C75.4211 33.3789 75.5111 33.7689 75.5111 34.1949C75.5111 34.6569 75.3701 35.0919 75.0881 35.4999C74.8061 35.9019 74.4521 36.2259 74.0261 36.4719C73.6061 36.7119 73.1981 36.8319 72.8021 36.8319C72.4061 36.8319 72.0491 36.7299 71.7311 36.5259C71.4191 36.3159 71.1731 36.0339 70.9931 35.6799C70.8191 35.3259 70.7321 34.9359 70.7321 34.5099C70.7321 34.0479 70.8731 33.6159 71.1551 33.2139C71.4371 32.8059 71.7881 32.4819 72.2081 32.2419C72.6341 31.9959 73.0451 31.8729 73.4411 31.8729ZM72.9191 32.6289C72.2411 32.6289 71.9021 33.1119 71.9021 34.0779C71.9021 34.6479 72.0251 35.1249 72.2711 35.5089C72.5171 35.8869 72.8681 36.0759 73.3241 36.0759C74.0021 36.0759 74.3411 35.5899 74.3411 34.6179C74.3411 34.0539 74.2181 33.5829 73.9721 33.2049C73.7261 32.8209 73.3751 32.6289 72.9191 32.6289ZM79.6994 28.7949C79.8674 28.7949 80.0564 28.8129 80.2664 28.8489C80.4824 28.8789 80.6354 28.9119 80.7254 28.9479V30.3339H80.3834C80.2334 30.0939 80.0504 29.9049 79.8344 29.7669C79.6184 29.6229 79.3994 29.5509 79.1774 29.5509C78.9014 29.5509 78.6914 29.6739 78.5474 29.9199C78.4094 30.1659 78.3404 30.5259 78.3404 30.9999V32.2329H79.9604V32.6019H78.3404V35.9949L79.6004 36.3819L79.4204 36.7419H76.4594V36.4629L77.2604 35.8329V32.6019H76.1894V32.2329H77.2604V31.4319C77.2604 30.9699 77.3864 30.5349 77.6384 30.1269C77.8904 29.7189 78.2054 29.3949 78.5834 29.1549C78.9674 28.9149 79.3394 28.7949 79.6994 28.7949ZM85.4931 36.7599C85.3551 36.8079 85.1871 36.8319 84.9891 36.8319C84.4911 36.8319 84.1251 36.7029 83.8911 36.4449C83.6631 36.1809 83.5491 35.7759 83.5491 35.2299V32.6019H82.5771V32.2329L84.2871 30.2439H84.6291V32.2329H86.2491V32.6019H84.6291V35.3379C84.6291 35.8239 84.8631 36.0669 85.3311 36.0669C85.4571 36.0669 85.5771 36.0399 85.6911 35.9859C85.8111 35.9319 85.9581 35.8359 86.1321 35.6979L86.4021 36.0399L85.4931 36.7599ZM92.4236 36.7419H90.7136V33.7089C90.7136 33.3789 90.6626 33.1479 90.5606 33.0159C90.4586 32.8839 90.2756 32.8179 90.0116 32.8179C89.8136 32.8179 89.6156 32.8539 89.4176 32.9259C89.2256 32.9979 88.9976 33.1359 88.7336 33.3399V36.0669L89.5436 36.3819L89.3636 36.7419H86.8526V36.4629L87.6536 35.8329V30.2979L86.8526 29.7399V29.4609L88.3916 28.8849H88.7336V32.9169L89.9666 31.9449C90.0926 31.8969 90.2576 31.8729 90.4616 31.8729C90.8696 31.8729 91.1936 31.9989 91.4336 32.2509C91.6736 32.4969 91.7936 32.8329 91.7936 33.2589V36.0669L92.6036 36.3819L92.4236 36.7419ZM96.3946 36.7599C96.1546 36.8079 95.8666 36.8319 95.5306 36.8319C95.1346 36.8319 94.7776 36.7299 94.4596 36.5259C94.1476 36.3159 93.9016 36.0339 93.7216 35.6799C93.5476 35.3259 93.4606 34.9359 93.4606 34.5099C93.4606 34.0479 93.6016 33.6159 93.8836 33.2139C94.1656 32.8059 94.5166 32.4819 94.9366 32.2419C95.3626 31.9959 95.7736 31.8729 96.1696 31.8729C96.7396 31.8729 97.1806 32.0979 97.4926 32.5479C97.8106 32.9979 97.9696 33.5919 97.9696 34.3299H94.6396C94.6756 34.8399 94.8136 35.2569 95.0536 35.5809C95.2996 35.9049 95.6326 36.0669 96.0526 36.0669C96.4426 36.0669 96.9976 35.7639 97.7176 35.1579L97.9876 35.4999L96.3946 36.7599ZM95.6476 32.6289C94.9996 32.6289 94.6606 33.0729 94.6306 33.9609H96.7366C96.6826 33.6369 96.6256 33.3909 96.5656 33.2229C96.5116 33.0489 96.4126 32.9079 96.2686 32.7999C96.1306 32.6859 95.9236 32.6289 95.6476 32.6289Z" fill="white"/>
</g>
<path d="M1.9981 57.4335V6.73973L27.0541 1.73134V61.1898L1.9981 57.4335Z" fill="url(#paint0_linear_140_371)" stroke="#222222" stroke-width="2.088"/>
<ellipse cx="22.1819" cy="31.43" rx="1.74" ry="1.74" fill="#222222"/>
<defs>
<filter id="filter0_d_140_371" x="16.9621" y="5.77398" width="96.568" height="55.784" filterUnits="userSpaceOnUse" color-interpolation-filters="sRGB">
<feFlood flood-opacity="0" result="BackgroundImageFix"/>
<feColorMatrix in="SourceAlpha" type="matrix" values="0 0 0 0 0 0 0 0 0 0 0 0 0 0 0 0 0 0 127 0" result="hardAlpha"/>
<feOffset/>
<feGaussianBlur stdDeviation="1.392"/>
<feComposite in2="hardAlpha" operator="out"/>
<feColorMatrix type="matrix" values="0 0 0 0 1 0 0 0 0 1 0 0 0 0 1 0 0 0 0.6 0"/>
<feBlend mode="normal" in2="BackgroundImageFix" result="effect1_dropShadow_140_371"/>
<feBlend mode="normal" in="SourceGraphic" in2="effect1_dropShadow_140_371" result="shape"/>
</filter>
<linearGradient id="paint0_linear_140_371" x1="14.5261" y1="0.458008" x2="14.5261" y2="62.402" gradientUnits="userSpaceOnUse">
<stop stop-color="#957A45"/>
<stop offset="1" stop-color="#D09522"/>
</linearGradient>
</defs>
</svg>
