<svg width="23" height="23" viewBox="0 0 23 23" fill="none" xmlns="http://www.w3.org/2000/svg">
<path fill-rule="evenodd" clip-rule="evenodd" d="M2.58646 0.306219C2.10916 -0.102073 1.3353 -0.102073 0.857995 0.306219C0.380668 0.71449 0.380668 1.37643 0.857995 1.7847L10.6358 10.1483C11.1131 10.5566 11.8869 10.5566 12.3642 10.1483L22.1421 1.7847C22.6193 1.37643 22.6193 0.71449 22.1421 0.306219C21.6647 -0.102073 20.8908 -0.102073 20.4134 0.306219L11.5 7.93059L2.58646 0.306219ZM2.58646 12.8517C2.10916 12.4434 1.3353 12.4434 0.857995 12.8517C0.380668 13.2599 0.380668 13.9219 0.857995 14.3302L10.6358 22.6939C11.1131 23.102 11.8869 23.102 12.3642 22.6939L22.1421 14.3302C22.6193 13.9219 22.6193 13.2599 22.1421 12.8517C21.6647 12.4434 20.8908 12.4434 20.4134 12.8517L11.5 20.4761L2.58646 12.8517Z" fill="white"/>
</svg>
