<svg width="31" height="26" viewBox="0 0 31 26" fill="none" xmlns="http://www.w3.org/2000/svg">
<path d="M11.9816 0.5V2.65625C10.6662 2.14063 9.25562 1.875 7.84509 1.875C5.00818 1.875 2.17127 2.9375 0 5.07812L5.27761 10.2812H7.03681V12.0156C8.3998 13.3594 10.1748 14.0625 11.9657 14.1406V17.6875H7.22699V22.375C7.22699 24.0938 8.65337 25.5 10.3967 25.5H26.2454C28.8763 25.5 31 23.4062 31 20.8125V0.5H11.9816ZM10.2224 10.5156V7.15625H6.6089L4.96063 5.53125C5.86401 5.1875 6.84663 5 7.84509 5C9.96881 5 11.9499 5.8125 13.4555 7.28125L15.6902 9.48438L15.3732 9.79688C14.5649 10.5938 13.4872 11.0469 12.3303 11.0469C11.5854 11.0469 10.8563 10.8594 10.2224 10.5156ZM27.8303 20.8125C27.8303 21.6719 27.1171 22.375 26.2454 22.375C25.3737 22.375 24.6605 21.6719 24.6605 20.8125V17.6875H15.1513V13.6406C16.0547 13.2812 16.8947 12.75 17.6237 12.0312L17.9407 11.7188L22.4259 16.125H24.6605V13.9219L15.1513 4.59375V3.625H27.8303V20.8125Z" fill="white"/>
</svg>
