<svg width="40" height="40" viewBox="0 0 40 40" fill="none" xmlns="http://www.w3.org/2000/svg">
<rect width="40" height="40" rx="19" fill="#151515"/>
<g clip-path="url(#clip0_243_119)">
<path fill-rule="evenodd" clip-rule="evenodd" d="M17.5861 23.5035V16.7693C19.9768 17.8942 21.8283 18.9809 24.0181 20.1525C22.212 21.1541 19.9768 22.278 17.5861 23.5035ZM30.9092 13.4201C30.4968 12.8768 29.794 12.4538 29.0457 12.3138C26.8463 11.8962 13.1252 11.895 10.927 12.3138C10.3269 12.4263 9.7926 12.6982 9.3336 13.1206C7.39956 14.9157 8.0056 24.5422 8.47178 26.1015C8.66781 26.7765 8.92123 27.2632 9.24038 27.5828C9.65157 28.0052 10.2146 28.2961 10.8612 28.4265C12.6721 28.8011 22.0016 29.0105 29.0074 28.4828C29.6529 28.3703 30.2243 28.07 30.6749 27.6296C32.4631 25.8417 32.3412 15.6747 30.9092 13.4201Z" fill="#E8E6E3"/>
</g>
<defs>
<clipPath id="clip0_243_119">
<rect width="24" height="24" fill="white" transform="translate(8 8)"/>
</clipPath>
</defs>
</svg>
